<svg xmlns="http://www.w3.org/2000/svg" viewBox="0 0 512 512" style="height: 512px; width: 512px;"><defs><filter id="shadow-1" height="300%" width="300%" x="-100%" y="-100%"><feFlood flood-color="rgba(0, 0, 0, 1)" result="flood"></feFlood><feComposite in="flood" in2="SourceGraphic" operator="atop" result="composite"></feComposite><feGaussianBlur in="composite" stdDeviation="15" result="blur"></feGaussianBlur><feOffset dx="0" dy="0" result="offset"></feOffset><feComposite in="SourceGraphic" in2="offset" operator="over"></feComposite></filter></defs><rect fill="#ffffff" height="512" width="512" rx="32" ry="32" fill-opacity="0"></rect><g class="" transform="translate(0,0)" style=""><path d="M466.674 16.34 435.78 47.232l14.326 14.326L481 30.664 466.674 16.34zM34.418 445.184l46.577 46.577a13.32 13.32 0 0 0 20.618-2.213l60.15-93.456 51.144-21.74s2.487-22.322 3.033-30.12c.763-10.805 3.966-22.05 11.633-29.718l162.948-162.95a21.086 21.086 0 0 0 0-29.82L347.958 79.18a17.516 17.516 0 0 0-24.772 0l-170.87 170.87a10.736 10.736 0 0 0 0 15.184l22.775 22.775L34.427 428.675a11.67 11.67 0 0 0-.01 16.51zm153.614-182.737c-5.962-5.963-4.907-16.68 2.392-23.98l125.273-125.274c7.262-7.262 18.018-8.354 23.98-2.392l6.31 6.31L194.344 268.76l-6.31-6.31zm118.933 97.288 20.41-20.41 12.416-32.892-18.385-55.515 7.328-7.33 20.364 61.488a4.636 4.636 0 0 1-.057 3.09l-13.31 35.405a4.636 4.636 0 0 1-1.063 1.65l-22.512 22.51c-.282.283-23.952 18.885-23.952 18.885-22.107-10.37-32.467-38.345-26.12-56.56 2.827-8.12.04-12.98-4.643-15.194l20.798-20.797zm-78.224 30.47 39.353 39.353-28.228 44.617-61.817-61.817zm195.096-324.83 8.13 8.13-29.737 29.734-8.13-8.128 29.708-29.708z" fill="#f7f7f7" fill-opacity="1" filter="url(#shadow-1)" stroke="#ccc" stroke-opacity="1" stroke-width="8"></path></g><g class="" transform="translate(256,256)" style=""><g><circle cx="128" cy="128" r="128" fill="#c9c9c9" fill-opacity="1"></circle><circle stroke="#ffffff" stroke-opacity="1" fill="#c9c9c9" fill-opacity="1" stroke-width="18" cx="128" cy="128" r="101"></circle><path fill="#ffffff" fill-opacity="1" d="M128.133 49.472L98.398 66.735l16.032 27.789a35.849 35.849 0 0 0-8.432 4.889L89.967 71.64 60.282 88.87v33.958h32.211a36.405 36.405 0 0 0-.348 4.956c0 1.69.123 3.356.349 4.99H60.281v34.357l29.651 17.212 16.132-27.938a35.877 35.877 0 0 0 8.397 4.938L98.363 189.25l29.768 17.28 29.752-17.23-16.148-27.955a35.929 35.929 0 0 0 8.397-4.956l16.185 28.038 29.402-17.029v-34.624h-32.031c.226-1.634.35-3.298.35-4.99 0-1.679-.127-3.336-.35-4.955h32.03V88.587l-29.436-17.03L150.2 99.43a35.908 35.908 0 0 0-8.43-4.905l16.08-27.855-29.716-17.197zm-.05 52.136c14.485 0 26.193 11.689 26.193 26.176 0 14.488-11.705 26.176-26.193 26.176-14.488 0-26.176-11.69-26.176-26.176 0-14.486 11.69-26.176 26.176-26.176z"></path></g></g></svg>